<?xml version="1.0" standalone="no"?>
<!DOCTYPE svg PUBLIC "-//W3C//DTD SVG 20010904//EN"
 "http://www.w3.org/TR/2001/REC-SVG-20010904/DTD/svg10.dtd">
<svg version="1.0" xmlns="http://www.w3.org/2000/svg"
 width="1024.000000pt" height="1024.000000pt" viewBox="0 0 1024.000000 1024.000000"
 preserveAspectRatio="xMidYMid meet">

<g transform="translate(0.000000,1024.000000) scale(0.100000,-0.100000)"
fill="#000000" stroke="none">
<path d="M0 5120 l0 -5120 5120 0 5120 0 0 5120 0 5120 -5120 0 -5120 0 0
-5120z m4360 3006 c67 -12 229 -80 218 -91 -2 -2 -26 2 -53 10 -68 21 -204 19
-310 -5 -260 -56 -424 -124 -623 -255 -302 -199 -616 -601 -797 -1021 -37 -84
-136 -392 -155 -480 -42 -196 -50 -284 -50 -566 0 -381 28 -560 135 -862 95
-268 180 -442 329 -673 351 -547 823 -968 1366 -1219 187 -86 366 -146 526
-175 105 -19 141 -21 309 -15 105 3 219 10 255 15 65 10 389 113 373 118 -5 2
-35 -6 -68 -17 -65 -22 -88 -19 -32 5 21 8 37 17 37 19 0 6 -106 -1 -200 -12
-266 -33 -630 14 -891 113 -188 72 -466 217 -619 323 -137 95 -359 281 -464
387 -201 203 -417 505 -550 765 -96 188 -197 487 -251 745 -24 113 -28 159
-33 356 -2 132 0 275 7 342 30 303 181 748 338 991 164 254 404 465 686 602
103 50 148 59 71 14 -72 -42 -256 -201 -337 -292 -74 -83 -167 -200 -227 -289
-51 -74 -170 -312 -214 -425 -46 -120 -102 -369 -121 -534 -29 -264 -15 -617
35 -859 35 -168 143 -467 233 -646 91 -182 323 -512 458 -653 181 -187 427
-385 644 -517 105 -64 344 -186 420 -214 157 -60 431 -127 655 -162 69 -11
413 7 496 26 92 21 267 90 372 145 141 76 147 65 28 -47 -153 -145 -356 -259
-649 -362 -170 -60 -278 -76 -507 -75 -277 1 -460 35 -740 136 -88 32 -414
198 -517 264 -183 116 -361 265 -563 470 -113 115 -228 241 -255 279 -26 39
-72 102 -102 142 -164 222 -372 673 -438 948 -14 55 -34 132 -45 170 -11 39
-30 138 -42 220 -20 130 -23 190 -23 455 0 270 3 320 23 432 27 158 75 349
112 448 15 41 41 118 58 170 64 201 197 478 315 655 160 238 414 465 642 575
243 116 522 164 735 126z m1712 -90 c121 -19 374 -85 525 -137 345 -119 756
-402 939 -647 32 -42 82 -102 112 -133 51 -54 53 -57 31 -62 -14 -4 -26 -1
-31 6 -11 21 -125 155 -211 250 -98 107 -269 253 -397 336 -256 167 -603 297
-955 357 -127 22 -557 26 -680 6 -118 -19 -405 -98 -520 -143 -55 -21 -172
-75 -260 -119 -166 -82 -183 -83 -35 -2 285 156 640 272 930 302 117 12 435 4
552 -14z m-42 -186 c374 -48 745 -199 1054 -431 117 -89 292 -258 320 -310
l18 -35 -63 -61 c-113 -107 -260 -224 -408 -325 l-54 -37 -43 66 c-100 152
-224 260 -424 371 -84 46 -238 100 -373 130 -107 23 -144 26 -297 26 -152 0
-190 -4 -290 -27 -325 -74 -572 -214 -797 -452 -127 -134 -209 -249 -294 -413
-119 -232 -168 -435 -176 -724 -6 -208 4 -324 43 -490 112 -489 402 -881 829
-1123 225 -128 447 -185 718 -185 211 0 379 41 592 145 110 53 271 162 281
190 12 31 22 13 33 -60 14 -94 14 -235 0 -295 -23 -103 -63 -209 -98 -260 -90
-132 -327 -260 -582 -316 -158 -34 -470 -29 -666 12 -392 80 -741 244 -1048
491 -109 88 -308 288 -396 398 -242 302 -388 643 -450 1045 -18 117 -23 188
-23 370 -1 251 9 345 59 560 117 511 441 978 920 1327 141 102 454 264 605
311 36 12 90 30 121 41 75 27 338 72 474 80 134 9 225 5 415 -19z m-1591 -194
c-7 -7 -152 -110 -189 -134 l-35 -24 30 26 c47 41 225 162 194 132z m-229
-160 c0 -2 -8 -10 -17 -17 -16 -13 -17 -12 -4 4 13 16 21 21 21 13z m605 -834
c-6 -5 -35 -30 -65 -57 l-55 -48 57 56 c31 32 60 57 64 57 4 0 4 -4 -1 -8z
m1928 -61 c27 -46 14 -38 -18 12 -16 23 -22 37 -14 30 8 -6 22 -25 32 -42z
m37 -61 c6 -11 8 -20 6 -20 -3 0 -10 9 -16 20 -6 11 -8 20 -6 20 3 0 10 -9 16
-20z m84 -142 c-7 -11 -7 -11 -24 22 -13 25 -13 25 8 6 12 -10 19 -23 16 -28z
m-2348 -154 c-25 -49 -45 -85 -45 -79 -1 14 81 177 86 171 2 -2 -16 -44 -41
-92z m-55 -121 c-12 -20 -14 -14 -5 12 4 9 9 14 11 11 3 -2 0 -13 -6 -23z
m-64 -260 c-3 -10 -5 -4 -5 12 0 17 2 24 5 18 2 -7 2 -21 0 -30z m1679 -28
c21 -20 30 -19 13 2 -12 15 -12 16 4 10 10 -4 17 -2 17 5 0 6 10 3 22 -8 19
-17 21 -17 15 -1 -9 24 6 21 33 -8 13 -14 28 -25 33 -25 6 0 0 12 -14 26 l-24
27 32 -17 c17 -8 33 -21 36 -28 4 -9 6 -8 6 3 1 8 -4 20 -11 27 -7 7 -9 12 -5
12 4 0 17 -15 28 -32 18 -29 20 -30 14 -8 -6 24 -5 23 24 -8 19 -19 31 -27 31
-18 0 8 -4 18 -10 21 -5 3 -15 16 -22 28 -11 21 -10 21 14 -2 14 -14 33 -26
43 -27 10 -2 22 -10 27 -18 8 -14 79 -16 648 -16 449 0 646 -3 664 -11 32 -15
34 -29 46 -329 9 -263 14 -1177 5 -1169 -2 3 -5 201 -6 440 -2 510 -13 845
-31 948 -12 70 -15 75 -43 83 -16 4 -498 8 -1070 7 -828 -1 -1048 -4 -1078
-14 -37 -13 -38 -13 -21 6 28 30 79 39 242 39 l152 0 -16 28 -16 27 25 -27
c16 -17 27 -23 30 -15 2 6 -6 20 -17 30 -22 19 -2 13 24 -8 8 -7 23 -15 33
-18 15 -6 17 -3 11 16 -6 22 -6 22 22 -3 25 -22 26 -22 10 -2 -27 31 -15 37
19 10 28 -22 27 -10 -2 23 -12 15 -11 16 17 13 17 -2 38 -11 46 -19z m-132
-14 c-2 -3 -12 3 -22 13 -16 17 -16 18 5 5 12 -7 20 -15 17 -18z m-1559 -203
c1 -248 19 -373 86 -573 68 -204 151 -357 274 -505 317 -379 699 -552 1133
-512 153 14 290 49 394 100 42 21 72 31 65 24 -30 -37 -226 -113 -354 -138
-97 -18 -323 -18 -438 1 -255 41 -499 176 -715 394 -177 180 -288 360 -375
610 -63 184 -101 477 -85 656 5 50 9 105 9 123 1 17 2 32 4 32 1 0 2 -96 2
-212z m1466 195 c13 -16 12 -17 -3 -4 -10 7 -18 15 -18 17 0 8 8 3 21 -13z
m-63 -18 c-3 -3 -9 2 -12 12 -6 14 -5 15 5 6 7 -7 10 -15 7 -18z m822 -208
l935 -2 7 -60 c13 -123 13 -1214 -1 -1340 -12 -116 -60 -338 -102 -474 -50
-164 -149 -379 -237 -516 -124 -193 -402 -534 -493 -605 -24 -19 -75 -62 -114
-95 -220 -190 -435 -336 -680 -460 -182 -92 -313 -140 -534 -196 -309 -78
-346 -84 -566 -84 -171 0 -216 4 -310 23 -386 82 -618 192 -885 421 -134 115
-229 231 -292 356 -74 147 -159 445 -157 547 l1 43 9 -44 c12 -64 48 -168 77
-226 41 -83 160 -234 267 -341 82 -82 127 -116 236 -181 254 -154 460 -224
794 -272 285 -41 566 -7 909 111 266 92 437 191 679 391 183 152 282 250 404
402 190 237 300 508 333 817 42 397 -55 745 -270 972 -221 232 -418 326 -715
341 -156 7 -195 13 -195 26 0 6 -13 29 -30 52 -33 47 -56 133 -65 247 -3 41
-8 93 -11 115 l-5 41 38 -4 c21 -1 459 -4 973 -5z m-1040 -552 c13 -14 21 -25
18 -25 -2 0 -15 11 -28 25 -13 14 -21 25 -18 25 2 0 15 -11 28 -25z m293 -82
c-7 -2 -21 -2 -30 0 -10 3 -4 5 12 5 17 0 24 -2 18 -5z m70 -10 c-7 -2 -21 -2
-30 0 -10 3 -4 5 12 5 17 0 24 -2 18 -5z m64 -9 c-3 -3 -12 -4 -19 -1 -8 3 -5
6 6 6 11 1 17 -2 13 -5z m1738 -751 c-9 -76 -17 -61 -8 18 3 35 8 58 11 51 2
-7 1 -38 -3 -69z m-3122 -1930 c-7 -2 -19 -2 -25 0 -7 3 -2 5 12 5 14 0 19 -2
13 -5z m-728 -433 c3 -6 -1 -7 -9 -4 -18 7 -21 14 -7 14 6 0 13 -4 16 -10z
m120 -62 c6 -5 -8 -2 -30 7 -22 9 -44 21 -50 26 -5 6 8 3 30 -6 22 -9 45 -21
50 -27z m147 -59 c58 -23 243 -75 353 -100 57 -13 66 -17 30 -13 -105 12 -375
91 -441 128 -31 18 -18 15 58 -15z m491 -126 c-7 -2 -21 -2 -30 0 -10 3 -4 5
12 5 17 0 24 -2 18 -5z"/>
<path d="M2552 5763 c-1 -140 -6 -243 -11 -245 -6 -1 -11 -43 -13 -93 -2 -74
2 -100 20 -145 23 -58 29 -110 12 -110 -5 0 -10 -7 -10 -15 0 -8 6 -14 12 -12
7 1 14 -8 16 -20 2 -13 8 -23 13 -23 5 0 9 -8 9 -19 0 -10 7 -24 15 -31 12
-10 27 -58 30 -92 0 -3 3 -10 8 -14 12 -12 8 -26 -5 -19 -7 4 -6 0 3 -7 9 -7
24 -36 33 -62 16 -47 35 -87 36 -76 0 3 -18 61 -40 130 -37 113 -88 338 -106
464 -4 27 -10 180 -14 340 l-7 291 -1 -242z"/>
<path d="M2740 4715 c0 -5 5 -17 10 -25 5 -8 10 -10 10 -5 0 6 -5 17 -10 25
-5 8 -10 11 -10 5z"/>
<path d="M3280 4221 c0 -10 110 -154 138 -181 14 -13 15 -13 5 0 -47 67 -143
189 -143 181z"/>
<path d="M3515 4060 c10 -11 20 -20 23 -20 3 0 -3 9 -13 20 -10 11 -20 20 -23
20 -3 0 3 -9 13 -20z"/>
<path d="M2960 4059 c0 -8 7 -24 15 -35 18 -24 19 -7 0 26 -9 16 -14 19 -15 9z"/>
<path d="M3570 3986 c0 -2 8 -10 18 -17 15 -13 16 -12 3 4 -13 16 -21 21 -21
13z"/>
<path d="M3160 3956 c0 -2 8 -10 18 -17 15 -13 16 -12 3 4 -13 16 -21 21 -21
13z"/>
<path d="M3200 3906 c0 -2 8 -10 18 -17 15 -13 16 -12 3 4 -13 16 -21 21 -21
13z"/>
<path d="M3590 3825 c79 -93 151 -161 290 -272 139 -112 213 -164 404 -288 58
-37 336 -175 354 -175 6 0 51 -16 102 -35 94 -37 267 -78 275 -65 2 3 -44 22
-103 40 -59 18 -136 46 -171 62 -43 19 -68 25 -79 19 -18 -10 -80 10 -124 41
-14 10 -29 18 -33 18 -9 0 -73 27 -105 45 -14 8 -47 25 -75 39 -27 14 -69 43
-93 65 -24 23 -49 41 -57 41 -9 0 -15 10 -15 25 0 14 -4 25 -9 25 -5 0 -13 9
-16 20 -3 11 -11 20 -17 20 -5 0 -19 11 -30 25 -10 14 -54 52 -96 86 -42 34
-124 108 -182 163 -57 56 -82 76 -55 46 67 -76 133 -141 177 -174 21 -15 36
-33 35 -39 -1 -7 6 -11 15 -9 21 3 29 -10 18 -28 -8 -13 -14 -12 -45 4 -24 13
-32 23 -25 30 5 5 10 15 10 21 0 5 -4 4 -9 -4 -5 -8 -15 -11 -22 -7 -51 24
-141 98 -234 191 -79 80 -126 118 -85 70z"/>
<path d="M3280 3806 c0 -2 8 -10 18 -17 15 -13 16 -12 3 4 -13 16 -21 21 -21
13z"/>
<path d="M3460 3597 c0 -1 35 -36 78 -77 l77 -75 -75 78 c-69 71 -80 82 -80
74z"/>
<path d="M3431 3487 c7 -6 224 -201 229 -207 11 -12 149 -118 195 -151 112
-80 489 -283 621 -333 33 -13 128 -42 210 -64 232 -63 397 -80 609 -63 278 23
373 44 531 116 32 15 77 34 99 43 55 22 92 42 78 42 -6 0 -32 -9 -56 -19 -26
-11 -60 -18 -79 -16 -18 2 -103 -14 -188 -35 -85 -21 -144 -39 -130 -40 19 -2
16 -4 -14 -11 -22 -5 -44 -7 -50 -5 -6 2 0 5 13 5 13 1 22 3 19 6 -2 3 -49 -2
-104 -10 -54 -8 -120 -15 -146 -15 -26 0 -50 -4 -53 -10 -3 -5 -17 -10 -31
-10 -30 0 -32 -17 -1 -23 12 -2 -23 -5 -78 -6 -109 -1 -291 26 -390 58 -33 10
-94 29 -135 41 -111 32 -140 43 -140 52 0 4 -6 8 -14 8 -13 0 -122 50 -216 99
-270 142 -264 139 -405 242 -49 36 -152 120 -228 187 -76 67 -140 122 -144
122 -3 0 -4 -2 -2 -3z"/>
<path d="M3650 3415 c13 -14 26 -25 28 -25 3 0 -5 11 -18 25 -13 14 -26 25
-28 25 -3 0 5 -11 18 -25z"/>
<path d="M3700 3376 c0 -9 133 -116 144 -116 6 0 -1 8 -14 17 -14 9 -49 37
-77 61 -29 24 -53 42 -53 38z"/>
<path d="M3944 3192 c8 -13 66 -56 66 -49 0 3 -17 17 -37 33 -20 15 -33 23
-29 16z"/>
<path d="M4635 3130 c3 -5 10 -10 16 -10 5 0 9 5 9 10 0 6 -7 10 -16 10 -8 0
-12 -4 -9 -10z"/>
<path d="M4050 3116 c0 -3 9 -10 20 -16 11 -6 20 -8 20 -6 0 3 -9 10 -20 16
-11 6 -20 8 -20 6z"/>
<path d="M4170 3046 c0 -7 71 -49 75 -44 3 2 -13 15 -35 27 -22 12 -40 20 -40
17z"/>
<path d="M5045 2966 c38 -18 199 -29 245 -17 l35 9 -40 2 c-22 2 -81 4 -130 5
-50 1 -101 5 -115 8 -20 6 -19 4 5 -7z"/>
<path d="M4360 2945 c0 -2 20 -18 45 -35 25 -17 45 -26 45 -19 0 8 7 7 23 -3
31 -20 117 -51 123 -45 3 3 -12 11 -33 18 -21 7 -75 29 -120 50 -46 21 -83 36
-83 34z"/>
<path d="M4620 2830 c8 -5 22 -10 30 -10 13 0 13 1 0 10 -8 5 -22 10 -30 10
-13 0 -13 -1 0 -10z"/>
<path d="M4982 2734 c4 -3 55 -8 115 -11 59 -3 106 -3 103 0 -8 7 -225 19
-218 11z"/>
<path d="M5888 7283 c7 -3 16 -2 19 1 4 3 -2 6 -13 5 -11 0 -14 -3 -6 -6z"/>
<path d="M6015 7260 c94 -20 122 -23 114 -15 -7 7 -160 35 -184 34 -11 0 21
-9 70 -19z"/>
<path d="M6148 7233 c7 -3 16 -2 19 1 4 3 -2 6 -13 5 -11 0 -14 -3 -6 -6z"/>
<path d="M6460 7115 c14 -8 30 -14 35 -14 6 0 -1 6 -15 14 -14 8 -29 14 -35
14 -5 0 1 -6 15 -14z"/>
<path d="M6684 6959 c43 -41 86 -78 95 -83 30 -16 -82 93 -128 125 -35 24 -27
14 33 -42z"/>
<path d="M7138 6889 c-54 -44 -98 -83 -98 -86 0 -7 13 3 118 91 73 62 88 76
80 76 -2 0 -47 -37 -100 -81z"/>
<path d="M3482 5290 c0 -14 2 -19 5 -12 2 6 2 18 0 25 -3 6 -5 1 -5 -13z"/>
<path d="M3492 5200 c0 -14 2 -19 5 -12 2 6 2 18 0 25 -3 6 -5 1 -5 -13z"/>
<path d="M3502 5140 c0 -19 2 -27 5 -17 2 9 2 25 0 35 -3 9 -5 1 -5 -18z"/>
<path d="M3512 5080 c0 -14 2 -19 5 -12 2 6 2 18 0 25 -3 6 -5 1 -5 -13z"/>
<path d="M3520 5038 c0 -33 54 -210 96 -311 166 -405 425 -740 782 -1010 156
-117 210 -151 372 -232 200 -100 388 -163 615 -207 101 -19 152 -23 325 -23
241 0 330 13 486 66 104 36 226 98 241 123 4 6 -5 3 -19 -6 -75 -49 -162 -89
-243 -113 -88 -25 -266 -57 -274 -49 -2 2 1 4 7 4 7 0 12 7 12 15 0 11 -11 15
-40 15 -22 0 -40 5 -40 10 0 6 -9 10 -20 10 -11 0 -20 7 -20 15 0 8 -4 15 -9
15 -5 0 -12 18 -16 40 -6 38 -9 40 -41 40 -27 0 -34 4 -34 20 0 11 -4 20 -10
20 -5 0 -10 6 -10 14 0 9 -19 15 -57 19 -32 3 -59 11 -61 17 -2 5 -12 10 -23
10 -10 0 -19 5 -19 10 0 6 -10 10 -23 10 -13 0 -38 15 -58 36 -35 37 -116 84
-144 84 -8 0 -15 6 -15 14 0 13 -78 26 -161 26 -30 0 -39 4 -39 18 0 11 -25
30 -76 56 -42 21 -78 45 -81 52 -3 8 -14 14 -24 14 -10 0 -19 5 -19 10 0 6 -9
10 -20 10 -11 0 -20 5 -20 10 0 6 -9 10 -20 10 -11 0 -20 7 -20 15 0 9 -9 15
-25 15 -33 0 -75 20 -75 37 0 7 -9 13 -20 13 -15 0 -20 7 -20 29 0 22 -6 32
-21 36 -12 4 -40 24 -63 45 -23 21 -77 56 -121 78 -44 23 -102 62 -128 87 -27
25 -52 45 -58 45 -5 0 -9 6 -9 13 0 8 -18 22 -40 32 -23 10 -48 32 -59 51 -11
18 -37 44 -58 57 -51 33 -83 71 -117 137 -42 80 -128 165 -211 207 -38 20 -71
39 -73 43 -2 4 -12 6 -22 3 -15 -4 -20 0 -20 16 0 14 -6 21 -20 21 -13 0 -20
7 -20 20 0 11 -4 20 -10 20 -5 0 -10 9 -10 20 0 10 -13 33 -30 50 -16 17 -30
35 -30 40 0 5 -4 12 -10 15 -5 3 -10 0 -10 -7z m2337 -1764 c-3 -3 -12 -4 -19
-1 -8 3 -5 6 6 6 11 1 17 -2 13 -5z"/>
<path d="M4730 4187 c0 -2 15 -16 33 -33 l32 -29 -29 33 c-28 30 -36 37 -36
29z"/>
<path d="M4800 4126 c0 -2 8 -10 18 -17 15 -13 16 -12 3 4 -13 16 -21 21 -21
13z"/>
<path d="M6631 4069 c-13 -10 -19 -19 -14 -19 13 0 49 27 43 33 -3 3 -16 -3
-29 -14z"/>
<path d="M4980 3996 c0 -3 14 -12 30 -21 17 -9 30 -13 30 -11 0 3 -13 12 -30
21 -16 9 -30 13 -30 11z"/>
<path d="M5090 3936 c0 -2 7 -7 16 -10 8 -3 12 -2 9 4 -6 10 -25 14 -25 6z"/>
<path d="M5130 3914 c0 -6 65 -34 77 -34 9 1 -58 39 -69 40 -5 0 -8 -2 -8 -6z"/>
<path d="M5220 3877 c0 -6 120 -47 134 -46 6 0 -11 8 -39 18 -76 27 -95 33
-95 28z"/>
<path d="M5408 3813 c6 -2 18 -2 25 0 6 3 1 5 -13 5 -14 0 -19 -2 -12 -5z"/>
<path d="M5505 3791 c31 -9 102 -14 94 -7 -2 2 -31 6 -64 9 -39 4 -50 3 -30
-2z"/>
<path d="M5660 3770 c56 -8 237 -13 229 -6 -2 2 -67 6 -144 9 -87 3 -119 2
-85 -3z"/>
<path d="M6050 5825 c13 -14 26 -25 28 -25 3 0 -5 11 -18 25 -13 14 -26 25
-28 25 -3 0 5 -11 18 -25z"/>
<path d="M6110 5830 c0 -5 5 -10 11 -10 5 0 7 5 4 10 -3 6 -8 10 -11 10 -2 0
-4 -4 -4 -10z"/>
<path d="M6350 5801 c0 -5 5 -13 10 -16 6 -3 10 -2 10 4 0 5 -4 13 -10 16 -5
3 -10 2 -10 -4z"/>
<path d="M7290 3444 c-28 -59 -50 -108 -50 -110 0 -2 -8 -13 -17 -23 -37 -40
-48 -56 -45 -63 1 -5 -5 -8 -14 -8 -10 0 -14 6 -11 14 4 11 -13 15 -81 20
-108 8 -101 8 -139 0 -18 -3 -49 -3 -69 1 -29 5 -35 10 -31 26 3 10 1 19 -4
19 -11 0 0 32 17 46 14 11 27 64 16 64 -4 0 -33 -56 -65 -124 -80 -169 -249
-408 -368 -523 -207 -199 -466 -397 -644 -494 -160 -87 -465 -189 -670 -226
-134 -23 -175 -26 -385 -26 -226 -1 -329 5 -350 18 -6 3 -10 1 -10 -6 0 -7 -8
-5 -20 6 -11 10 -20 14 -20 9 0 -5 -13 -9 -30 -9 -16 0 -30 3 -30 7 0 4 -9 10
-20 13 -35 11 -22 26 18 20 20 -3 -15 10 -78 30 -123 39 -287 113 -414 189
-43 26 -81 44 -85 41 -3 -3 1 -10 9 -15 8 -5 11 -12 8 -15 -11 -12 -29 6 -26
25 2 13 -14 31 -49 57 -28 21 -79 62 -112 91 -34 30 -61 49 -61 43 0 -6 5 -11
11 -11 5 0 8 -4 5 -9 -3 -4 6 -13 19 -19 14 -7 25 -19 25 -28 0 -10 3 -14 7
-11 3 4 12 -1 19 -11 21 -27 16 -37 -8 -16 -21 17 -21 16 1 -9 14 -15 33 -27
43 -27 15 0 18 -8 18 -44 0 -39 -2 -44 -20 -39 -26 7 -98 87 -147 163 -65 100
-63 98 -56 75 22 -66 130 -204 224 -286 154 -135 327 -254 434 -297 437 -180
820 -225 1195 -141 221 49 545 158 661 221 68 37 207 116 249 142 145 88 484
362 645 521 128 126 213 232 367 455 69 101 211 380 193 380 -3 0 -28 -48 -55
-106z m-410 -194 c0 -5 -4 -10 -10 -10 -5 0 -10 5 -10 10 0 6 5 10 10 10 6 0
10 -4 10 -10z m-3296 -828 c3 -5 -1 -9 -9 -9 -8 0 -12 4 -9 9 3 4 7 8 9 8 2 0
6 -4 9 -8z m76 -52 c12 -7 10 -9 -8 -7 -12 0 -22 5 -22 9 0 11 12 10 30 -2z
m445 -231 c6 1 5 -2 -1 -9 -8 -8 -22 -5 -52 11 -23 13 -42 26 -42 31 0 5 19
-2 43 -14 23 -12 47 -21 52 -19z m662 -122 c39 -1 66 -5 60 -10 -14 -9 -197
-5 -191 5 2 3 -2 9 -8 12 -7 3 5 3 27 0 22 -3 72 -6 112 -7z m-354 -154 c-7
-2 -19 -2 -25 0 -7 3 -2 5 12 5 14 0 19 -2 13 -5z m60 -10 c-7 -2 -19 -2 -25
0 -7 3 -2 5 12 5 14 0 19 -2 13 -5z"/>
<path d="M4335 2079 c47 -14 197 -39 230 -38 17 0 -31 11 -105 24 -143 26
-174 29 -125 14z"/>
</g>
</svg>
